<svg width="92" height="92" viewBox="0 0 92 92" fill="none" xmlns="http://www.w3.org/2000/svg">
<circle opacity="0.1" cx="46" cy="46" r="46" fill="black"/>
<path fill-rule="evenodd" clip-rule="evenodd" d="M59.565 38.68L59.3394 38.305C59.0485 37.8515 58.6381 37.4746 58.1472 37.21L47.3367 31.405C46.8472 31.1406 46.2915 31.0009 45.7256 31H45.2583C44.6924 31.0009 44.1367 31.1406 43.6472 31.405L32.8367 37.225C32.3485 37.4879 31.9429 37.8654 31.6606 38.32L31.435 38.695C31.151 39.1507 31.001 39.6681 31 40.195V51.8199C31.001 52.3469 31.151 52.8642 31.435 53.3199L31.6606 53.6949C31.9502 54.1442 32.3541 54.5202 32.8367 54.7899L43.6633 60.5949C44.1504 60.8647 44.7077 61.0048 45.2744 60.9999H45.7256C46.2915 60.999 46.8472 60.8593 47.3367 60.5949L58.1472 54.7749C58.6402 54.518 59.0473 54.1389 59.3233 53.6799L59.565 53.3049C59.8455 52.8479 59.9953 52.3314 60 51.8049V40.18C59.999 39.6531 59.849 39.1357 59.565 38.68ZM45.2583 34H45.7256L55.1667 39.07L45.5 44.2599L35.8333 39.07L45.2583 34ZM47.1111 57.2499L56.5361 52.1799L56.7778 51.8049V41.665L47.1111 46.8699V57.2499Z" fill="black"/>
</svg>
